<?xml version="1.0" encoding="UTF-8"?><svg xmlns="http://www.w3.org/2000/svg" viewBox="0 0 148.39 40"><defs><style>.d{fill:#fff;}.e{fill:none;}</style></defs><g id="a"/><g id="b"><g id="c"><g><g><path class="d" d="M115.47,9.48c-2.61,0-5.31,1.54-6.74,3.52v-3.52h-5.62v24.52h5.62v-7.96c0-6.55,1.76-10.96,6.74-10.96v-5.6Z"/><path class="d" d="M67.02,28.4c-.06-.07-.14-.21-.14-.49v-10.37c0-4.29-3.37-7.8-7.61-8.06h-7.25v5.6l7.25,.03c1.13,.23,1.99,1.24,1.99,2.44l-.11,.3h-5.58c-2.67,0-5.55,2.33-5.55,6.09v3.98c0,3.76,2.88,6.09,5.55,6.09h5.75c.93,0,1.89-.29,2.74-.82,.85,.53,1.81,.82,2.74,.82h2.23v-5.6h-2.02Zm-5.75-.5v.02c0,.28-.08,.42-.14,.49h-5.34c-.06-.07-.14-.21-.14-.49v-3.98c0-.28,.08-.42,.14-.49h5.48v4.45Z"/><path class="d" d="M95.7,6h-5.62v3.48h-2.65v5.6h2.65v12.83c0,3.76,2.88,6.09,5.55,6.09h4.82v-5.6h-4.62c-.06-.07-.14-.21-.14-.49V15.08h4.75v-5.6h-4.75v-3.48Z"/><path class="d" d="M79.36,17.85l-3,.03c-.77,0-1.4-.63-1.4-1.4s.63-1.4,1.4-1.4h8.42v-5.6h-8.42c-3.87,0-7.02,3.14-7.02,7s3.15,7,7.02,7h3c1.13,.23,1.99,1.24,1.99,2.44,0,1.37-1.12,2.49-2.5,2.49h-7.14v5.6h7.14c4.47,0,8.11-3.63,8.11-8.09s-3.37-7.79-7.61-8.06Z"/><polygon class="d" points="49.64 9.48 42.74 9.48 39.21 15.68 35.67 9.48 28.78 9.48 35.76 21.74 28.78 34 35.67 34 39.21 27.79 42.74 34 49.64 34 42.66 21.74 49.64 9.48"/><polygon class="d" points="26.34 11.6 26.34 6 8 6 8 34 26.34 34 26.34 28.4 14.57 28.4 14.57 22.8 24.54 22.8 24.54 17.2 14.57 17.2 14.57 11.6 26.34 11.6"/><path class="d" d="M128.09,9.48c-6.79,0-12.3,5.49-12.3,12.26s5.51,12.26,12.3,12.26,12.3-5.49,12.3-12.26c0-6.77-5.5-12.26-12.3-12.26Zm3.48,13.85l2.15,6.6-5.64-4.08-5.64,4.08,2.15-6.6-5.64-4.08h6.96l2.15-6.6,2.15,6.6h6.96l-5.63,4.08Z"/></g><rect class="e" width="148.39" height="40"/></g></g></g></svg>