<?xml version="1.0" encoding="UTF-8"?><svg xmlns="http://www.w3.org/2000/svg" viewBox="0 0 151.6 40"><defs><style>.d{fill:#fff;}.e{fill:none;}</style></defs><g id="a"/><g id="b"><g id="c"><g><g><path class="d" d="M27.06,22.11H15.31v6.62h13.7v5.25H8V6.13H29.12v5.14H15.31v5.82h11.64v5.02h.11Z"/><path class="d" d="M40.19,24.51v9.47h-7.31V6.13h12.1c2.28,0,4.34,.34,6.16,1.14,1.83,.8,3.2,1.83,4.11,3.31,1.03,1.48,1.48,2.97,1.48,4.79,0,2.63-1.03,4.79-3.2,6.51-2.17,1.71-5.02,2.51-8.79,2.51,.11,.11-4.57,.11-4.57,.11Zm0-5.14h4.79c1.48,0,2.51-.34,3.31-1.03,.68-.68,1.14-1.48,1.14-2.63,0-1.37-.34-2.28-1.14-3.2-.8-.8-1.83-1.14-3.2-1.14h-4.79v7.99h-.11Z"/><path class="d" d="M86.07,20.51c0,2.63-.46,5.14-1.71,7.19-1.14,2.17-2.63,3.65-4.68,4.79-2.05,1.14-4.34,1.71-6.96,1.71s-4.79-.46-6.96-1.71c-2.05-1.14-3.65-2.63-4.68-4.68-1.14-2.05-1.71-4.34-1.83-6.96v-1.48c0-2.63,.46-5.14,1.71-7.19,1.14-2.05,2.63-3.65,4.68-4.79,2.05-1.14,4.34-1.71,6.96-1.71s4.79,.46,6.96,1.71c2.05,1.14,3.65,2.63,4.68,4.79,1.14,2.05,1.71,4.45,1.71,7.19v1.14h.11Zm-7.42-1.03c0-2.85-.46-4.79-1.48-6.28-1.03-1.48-2.51-2.17-4.34-2.17-3.65,0-5.71,2.51-5.82,7.53v2.05c0,2.63,.46,4.79,1.48,6.28,1.03,1.48,2.51,2.17,4.45,2.17,1.83,0,3.31-.68,4.34-2.17,1.03-1.48,1.48-3.54,1.48-6.16v-1.14h-.11v-.11Z"/><path class="d" d="M114.38,24.51c-.11,2.05-.68,3.65-1.71,5.14s-2.51,2.63-4.45,3.54c-1.83,.8-3.99,1.14-6.51,1.14-3.99,0-7.19-1.14-9.47-3.54-2.28-2.28-3.54-5.71-3.54-10.04v-1.37c0-2.63,.46-5.14,1.48-7.19s2.51-3.65,4.45-4.68c2.05-1.14,4.11-1.71,6.85-1.71,3.65,0,6.62,.8,9.02,2.63,2.28,1.83,3.54,4.11,3.88,7.31h-7.31c0-1.71-.46-2.85-1.37-3.65-.8-.68-2.17-1.14-3.99-1.14s-3.2,.68-3.99,1.83-1.37,3.2-1.37,6.05v2.05c0,2.97,.34,5.14,1.14,6.28,.8,1.37,2.17,1.83,4.11,1.83,1.71,0,2.97-.34,3.88-1.14,.8-.68,1.37-1.83,1.48-3.54h7.42v.23Z"/><path class="d" d="M143.6,33.87h-7.31v-11.76h-10.84v11.64h-7.31V6.13h7.31v10.96h10.84V6.13h7.31v27.74Z"/></g><rect class="e" width="151.6" height="40"/></g></g></g></svg>