<?xml version="1.0" encoding="UTF-8"?><svg xmlns="http://www.w3.org/2000/svg" viewBox="0 0 247.53 40"><defs><style>.d{fill:#fff;}.e{fill:none;}</style></defs><g id="a"/><g id="b"><g id="c"><g><g><path class="d" d="M8,6.39h6.37v27.97h-6.37V6.39Z"/><path class="d" d="M35.58,11.97h-6.4v22.4h-6.37V11.97h-6.33V6.39h19.11v5.57h0Z"/><path class="d" d="M66.81,34.36h-6.58l-1.63-6.51h-6.44l-1.52,6.51h-6.44l7.38-27.97h8.07l7.17,27.97Zm-8.97-11.32l-1.23-5.61c-.36-1.66-.83-4.16-1.2-5.86h-.07c-.36,1.7-.83,4.27-1.16,5.86l-1.27,5.61h4.92Z"/><path class="d" d="M86.4,27.81c0,2.49,.11,4.74,.18,6.55h-5.5l-.29-2.53h-.11c-.87,1.3-2.71,2.93-5.68,2.93-4.13,0-6.44-2.79-6.44-8.65V13.99h6.37v11.22c0,2.75,.76,4.34,2.53,4.34,1.3,0,2.57-1.01,2.57-3.07V13.99h6.37v13.82h0Z"/><path class="d" d="M91.11,10.27l6.3-1.77v5.5h4.23v4.59h-4.23v7.67c0,2.39,.76,3.26,2.28,3.26,.72,0,1.12-.04,1.66-.18l.04,4.92c-.8,.25-2.21,.47-3.91,.47-6.26,0-6.37-5.36-6.37-7.67v-8.46h-2.49v-4.59h2.49v-3.73Z"/><path class="d" d="M121.96,24.05c0,7.92-5.1,10.71-9.55,10.71-5.64,0-9.51-3.91-9.51-10.46s4.13-10.71,9.73-10.71c5.82,0,9.33,4.34,9.33,10.46Zm-9.48-5.82c-2.39,0-3.15,3.11-3.15,5.93,0,3.4,.98,5.97,3.15,5.97s3.04-2.71,3.04-5.97c0-3-.87-5.93-3.04-5.93Z"/><path class="d" d="M153.29,34.36h-6.26v-11.36c0-2.57-.58-4.23-2.31-4.23-1.48,0-2.53,1.27-2.53,3.33v12.27h-6.26v-11.87c0-1.99-.51-3.73-2.28-3.73-.94,0-2.57,.76-2.57,3.37v12.23h-6.26v-13.86c0-2.42-.07-4.59-.14-6.51h5.43l.29,2.53h.11c.94-1.27,2.71-2.93,5.61-2.93,2.49,0,4.31,1.2,5.1,3.11h.07c.8-1.16,2.64-3.11,5.79-3.11,3.98,0,6.22,2.97,6.22,8.39v12.38h0Z"/><path class="d" d="M173.05,29.55c0,1.81,.07,3.58,.32,4.81h-5.72l-.36-1.95h-.11c-1.23,1.63-3.15,2.35-5.25,2.35-3.69,0-6.12-2.82-6.12-6.26,0-5.39,4.81-7.71,10.82-7.74,0-1.56-.69-2.68-3.26-2.68-1.92,0-3.73,.58-5.03,1.38l-1.16-4.13c1.3-.72,3.95-1.74,7.46-1.74,6.73,0,8.39,4.27,8.39,8.79v7.17h0Zm-6.19-4.81c-2.64,0-4.89,.76-4.89,3.11,0,1.66,1.01,2.39,2.13,2.39,1.3,0,2.75-.94,2.75-2.86v-2.64h0Z"/><path class="d" d="M177.39,10.27l6.3-1.77v5.5h4.23v4.59h-4.23v7.67c0,2.39,.76,3.26,2.28,3.26,.72,0,1.12-.04,1.66-.18l.04,4.92c-.8,.25-2.21,.47-3.91,.47-6.26,0-6.37-5.36-6.37-7.67v-8.46h-2.49v-4.59h2.49v-3.73Z"/><path class="d" d="M193.82,11.71c-1.92,0-3.26-1.38-3.26-3.22s1.38-3.26,3.26-3.26,3.26,1.34,3.26,3.26-1.41,3.22-3.26,3.22Zm3.19,22.65h-6.37V13.99h6.37v20.37Z"/><path class="d" d="M218.73,24.05c0,7.92-5.1,10.71-9.55,10.71-5.64,0-9.51-3.91-9.51-10.46s4.13-10.71,9.73-10.71c5.82,0,9.33,4.34,9.33,10.46Zm-9.48-5.82c-2.39,0-3.15,3.11-3.15,5.93,0,3.4,.98,5.97,3.15,5.97s3.04-2.71,3.04-5.97c0-3-.87-5.93-3.04-5.93Z"/><path class="d" d="M239.53,34.36h-6.37v-11.83c0-2.13-.65-3.69-2.46-3.69-1.34,0-2.75,.98-2.75,3.58v11.94h-6.37v-13.85c0-2.42-.07-4.59-.14-6.51h5.46l.32,2.57h.11c.9-1.38,2.82-2.97,5.64-2.97,4.27,0,6.55,3.07,6.55,8.36v12.41h0Z"/></g><rect class="e" width="247.53" height="40"/></g></g></g></svg>