<?xml version="1.0" encoding="UTF-8"?><svg xmlns="http://www.w3.org/2000/svg" viewBox="0 0 267.63 40"><defs><style>.d{fill:#fff;}.e{fill:none;}.f{fill:#ccc;}</style></defs><g id="a"/><g id="b"><g id="c"><g><g><g><path class="f" d="M123.36,11.12c0,4.08-2.07,6.17-4.98,6.17-3.09,0-4.84-2.59-4.84-5.98s1.93-6.07,4.99-6.07c3.25,0,4.83,2.77,4.83,5.89Zm-7.46,.13c0,2.3,.9,4.19,2.56,4.19s2.54-1.87,2.54-4.23c0-2.15-.81-4.14-2.53-4.14-1.77,0-2.58,2.04-2.58,4.19Z"/><path class="f" d="M126.95,9.79c.55-.87,1.42-1.34,2.51-1.34,1.86,0,3.23,1.73,3.23,4.34,0,3.12-1.77,4.49-3.49,4.49-.93,0-1.65-.43-2.01-.99h-.03v4.22h-2.25V11.4c0-1.1-.03-1.99-.06-2.77h1.96l.11,1.16h.03Zm.21,3.9c0,1.23,.75,1.83,1.51,1.83,1.14,0,1.73-1.13,1.73-2.65s-.58-2.6-1.69-2.6c-.87,0-1.55,.82-1.55,1.84v1.58h0Z"/><path class="f" d="M140.63,16.78c-.7,.3-1.69,.49-2.74,.49-2.62,0-4.11-1.65-4.11-4.28,0-2.44,1.4-4.54,3.88-4.54,2.06,0,3.4,1.46,3.4,4.2,0,.33-.02,.65-.06,.9h-5.07c.06,1.45,1.1,2.03,2.32,2.03,.84,0,1.49-.15,2.07-.35l.32,1.55Zm-1.66-4.8c.02-.88-.33-1.96-1.45-1.96s-1.54,1.13-1.6,1.96h3.05Z"/><path class="f" d="M147.2,10.65c-.17-.03-.35-.04-.58-.04-1.02,0-1.8,.69-1.8,2.13v4.39h-2.25v-5.84c0-1.05-.03-1.89-.06-2.65h1.93l.09,1.48h.06c.39-1.1,1.31-1.66,2.1-1.66,.21,0,.35,.02,.5,.04v2.15h0Z"/><path class="f" d="M154.63,15.11c0,.75,.03,1.49,.12,2.01h-2.03l-.14-.88h-.04c-.49,.67-1.31,1.05-2.25,1.05-1.57,0-2.54-1.17-2.54-2.54,0-2.18,1.93-3.2,4.63-3.2,0-.84-.29-1.48-1.52-1.48-.78,0-1.54,.24-2.08,.58l-.43-1.46c.56-.33,1.61-.71,2.94-.71,2.63,0,3.35,1.67,3.35,3.53v3.1h0Zm-2.19-2.12c-1.22,0-2.48,.29-2.48,1.52,0,.81,.5,1.16,1.06,1.16s1.42-.38,1.42-1.46v-1.22Z"/><path class="f" d="M156.78,7.08l2.22-.65v2.21h1.87v1.66h-1.87v3.68c0,1.02,.32,1.45,1,1.45,.32,0,.5-.03,.73-.08l.03,1.72c-.3,.12-.85,.2-1.51,.2-2.44,0-2.48-2.12-2.48-3.06v-3.91h-1.11v-1.66h1.11v-1.56Z"/><path class="f" d="M163.27,7.52c-.71,0-1.2-.52-1.2-1.2s.5-1.2,1.2-1.2,1.22,.5,1.22,1.2c0,.73-.52,1.2-1.22,1.2Zm1.14,9.59h-2.25V8.63h2.25v8.48Z"/><path class="f" d="M173.76,12.81c0,3.23-2.07,4.48-3.96,4.48-2.28,0-3.93-1.61-3.93-4.37s1.72-4.46,4.02-4.46c2.37,0,3.86,1.78,3.86,4.35Zm-3.91-2.7c-1.25,0-1.69,1.46-1.69,2.75,0,1.51,.58,2.75,1.67,2.75s1.65-1.26,1.65-2.77c0-1.32-.48-2.74-1.63-2.74Z"/><path class="f" d="M182.53,17.11h-2.25v-4.95c0-1.04-.33-1.86-1.3-1.86-.61,0-1.45,.47-1.45,1.77v5.04h-2.25v-5.93c0-.99-.03-1.8-.06-2.54h1.95l.11,1.14h.04c.38-.63,1.22-1.32,2.45-1.32,1.55,0,2.75,1.08,2.75,3.46v5.19h0Z"/><path class="f" d="M196.52,17.11h-2.36l-.84-3.09h-3.14l-.81,3.09h-2.28l3.32-11.71h2.83l3.27,11.71Zm-3.52-4.79l-.7-2.66c-.18-.73-.38-1.67-.53-2.39h-.04c-.15,.73-.35,1.69-.52,2.38l-.7,2.68h2.49Z"/><path class="f" d="M204.73,14.52c0,1,.04,1.87,.08,2.59h-1.96l-.11-1.13h-.04c-.35,.55-1.13,1.3-2.44,1.3-1.61,0-2.71-1.05-2.71-3.6v-5.05h2.25v4.72c0,1.28,.37,2.08,1.3,2.08,.73,0,1.39-.63,1.39-1.58v-5.22h2.25v5.89h0Z"/><path class="f" d="M207,7.08l2.22-.65v2.21h1.87v1.66h-1.87v3.68c0,1.02,.32,1.45,1,1.45,.32,0,.5-.03,.73-.08l.03,1.72c-.3,.12-.85,.2-1.51,.2-2.44,0-2.48-2.12-2.48-3.06v-3.91h-1.11v-1.66h1.11v-1.56Z"/><path class="f" d="M219.66,12.81c0,3.23-2.07,4.48-3.96,4.48-2.28,0-3.93-1.61-3.93-4.37s1.72-4.46,4.02-4.46c2.37,0,3.86,1.78,3.86,4.35Zm-3.91-2.7c-1.25,0-1.69,1.46-1.69,2.75,0,1.51,.58,2.75,1.67,2.75s1.65-1.26,1.65-2.77c0-1.32-.47-2.74-1.63-2.74Z"/><path class="f" d="M228.42,17.11h-2.25v-4.95c0-1.04-.33-1.86-1.3-1.86-.61,0-1.45,.47-1.45,1.77v5.04h-2.25v-5.93c0-.99-.03-1.8-.06-2.54h1.95l.11,1.14h.04c.38-.63,1.22-1.32,2.45-1.32,1.55,0,2.75,1.08,2.75,3.46v5.19h0Z"/><path class="f" d="M237.74,12.81c0,3.23-2.07,4.48-3.96,4.48-2.28,0-3.93-1.61-3.93-4.37s1.72-4.46,4.02-4.46c2.37,0,3.86,1.78,3.86,4.35Zm-3.91-2.7c-1.25,0-1.69,1.46-1.69,2.75,0,1.51,.58,2.75,1.67,2.75s1.65-1.26,1.65-2.77c0-1.32-.47-2.74-1.63-2.74Z"/><path class="f" d="M250.99,17.11h-2.21v-4.79c0-1.22-.34-2.03-1.23-2.03-.63,0-1.32,.49-1.32,1.67v5.15h-2.21v-5.01c0-1-.32-1.81-1.2-1.81-.63,0-1.36,.58-1.36,1.72v5.1h-2.21v-5.92c0-.99-.03-1.8-.06-2.54h1.92l.11,1.13h.04c.39-.61,1.14-1.31,2.4-1.31,1.04,0,1.83,.55,2.16,1.42h.03c.7-1.04,1.57-1.42,2.51-1.42,1.47,0,2.62,1.05,2.62,3.5v5.15h0Z"/><path class="f" d="M259.63,8.63l-1.92,5.89c-.94,2.74-1.66,4.23-2.62,5.19-.82,.79-1.69,1.1-2.19,1.19l-.56-1.9c.37-.11,.79-.35,1.19-.63,.75-.53,1.13-1.4,1.13-1.57,0-.09-.03-.22-.09-.38l-2.85-7.8h2.47l1.25,4.43c.14,.52,.29,1.11,.39,1.58h.04c.09-.45,.23-1.05,.35-1.58l1.06-4.43h2.36Z"/><path class="f" d="M119.83,24.53c-.41-.22-1.13-.5-2.08-.5-1.19,0-1.72,.64-1.72,1.3,0,.84,.58,1.22,2.01,1.87,1.87,.84,2.71,1.92,2.71,3.46,0,2.04-1.54,3.53-4.27,3.53-1.16,0-2.33-.32-2.88-.65l.44-1.89c.61,.37,1.58,.65,2.53,.65,1.25,0,1.9-.59,1.9-1.46s-.56-1.34-1.86-1.91c-1.77-.76-2.86-1.86-2.86-3.38,0-1.92,1.51-3.4,4.03-3.4,1.11,0,1.96,.26,2.51,.53l-.47,1.84Z"/><path class="f" d="M129.24,31.45c0,1,.04,1.87,.08,2.59h-1.96l-.11-1.13h-.04c-.35,.55-1.13,1.3-2.44,1.3-1.61,0-2.71-1.05-2.71-3.6v-5.06h2.25v4.72c0,1.28,.37,2.08,1.3,2.08,.73,0,1.39-.63,1.39-1.58v-5.22h2.25v5.89h0Z"/><path class="f" d="M133.23,26.71c.55-.87,1.42-1.34,2.51-1.34,1.86,0,3.23,1.73,3.23,4.34,0,3.12-1.77,4.49-3.49,4.49-.93,0-1.65-.43-2.01-.99h-.03v4.22h-2.25v-9.1c0-1.1-.03-1.99-.06-2.77h1.96l.11,1.16h.03Zm.22,3.9c0,1.23,.75,1.83,1.51,1.83,1.14,0,1.73-1.13,1.73-2.65s-.58-2.6-1.69-2.6c-.87,0-1.55,.82-1.55,1.84v1.58h0Z"/><path class="f" d="M142.54,26.71c.55-.87,1.42-1.34,2.51-1.34,1.86,0,3.23,1.73,3.23,4.34,0,3.12-1.77,4.49-3.49,4.49-.93,0-1.65-.43-2.01-.99h-.03v4.22h-2.25v-9.1c0-1.1-.03-1.99-.06-2.77h1.96l.11,1.16h.03Zm.22,3.9c0,1.23,.75,1.83,1.51,1.83,1.14,0,1.73-1.13,1.73-2.65s-.58-2.6-1.69-2.6c-.87,0-1.55,.82-1.55,1.84v1.58h0Z"/><path class="f" d="M157.24,29.73c0,3.23-2.07,4.48-3.96,4.48-2.28,0-3.93-1.61-3.93-4.37s1.72-4.46,4.02-4.46c2.37,0,3.86,1.78,3.86,4.35Zm-3.91-2.69c-1.25,0-1.69,1.46-1.69,2.75,0,1.51,.58,2.75,1.67,2.75s1.65-1.26,1.65-2.77c0-1.32-.47-2.74-1.63-2.74Z"/><path class="f" d="M163.38,27.56c-.17-.03-.35-.04-.58-.04-1.02,0-1.8,.69-1.8,2.13v4.38h-2.25v-5.83c0-1.05-.03-1.89-.06-2.65h1.93l.09,1.48h.06c.39-1.1,1.31-1.66,2.1-1.66,.22,0,.35,.02,.5,.04v2.14h0Z"/><path class="f" d="M165.26,24l2.22-.65v2.21h1.87v1.66h-1.87v3.68c0,1.02,.32,1.45,1,1.45,.32,0,.5-.03,.73-.08l.03,1.72c-.3,.12-.85,.2-1.51,.2-2.44,0-2.48-2.12-2.48-3.06v-3.92h-1.11v-1.66h1.11v-1.55Z"/><path class="f" d="M180.71,34.04h-6.55v-11.71h6.3v1.89h-4.05v2.83h3.82v1.84h-3.82v3.26h4.29v1.89Z"/><path class="f" d="M189.45,34.04h-2.25v-4.95c0-1.04-.33-1.86-1.3-1.86-.61,0-1.45,.47-1.45,1.77v5.04h-2.25v-5.93c0-.99-.03-1.8-.06-2.54h1.95l.11,1.14h.04c.38-.63,1.22-1.32,2.45-1.32,1.55,0,2.75,1.08,2.75,3.46v5.19h0Z"/><path class="f" d="M198.64,25.57c-.04,.61-.08,1.36-.08,2.53v4.78c0,1.66-.15,4.74-4.28,4.74-.99,0-2.01-.2-2.68-.58l.44-1.72c.5,.27,1.3,.55,2.19,.55,1.26,0,2.1-.71,2.1-2.34v-.63h-.03c-.43,.67-1.19,1.08-2.12,1.08-2.01,0-3.27-1.81-3.27-4.13,0-2.8,1.63-4.46,3.5-4.46,1.06,0,1.75,.52,2.13,1.19h.03l.09-1h1.97Zm-2.33,3.29c0-1.08-.65-1.71-1.42-1.71-1.02,0-1.71,1.04-1.71,2.63,0,1.48,.63,2.48,1.69,2.48,.52,0,1.43-.33,1.43-1.77v-1.64h0Z"/><path class="f" d="M201.62,24.44c-.71,0-1.2-.52-1.2-1.2s.5-1.2,1.2-1.2,1.22,.5,1.22,1.2-.52,1.2-1.22,1.2Zm1.14,9.59h-2.25v-8.48h2.25v8.48Z"/><path class="f" d="M211.93,34.04h-2.25v-4.95c0-1.04-.33-1.86-1.3-1.86-.61,0-1.45,.47-1.45,1.77v5.04h-2.25v-5.93c0-.99-.03-1.8-.06-2.54h1.95l.11,1.14h.04c.38-.63,1.22-1.32,2.45-1.32,1.55,0,2.75,1.08,2.75,3.46v5.19h0Z"/><path class="f" d="M220.23,33.7c-.7,.3-1.69,.49-2.74,.49-2.62,0-4.11-1.65-4.11-4.28,0-2.44,1.4-4.54,3.88-4.54,2.06,0,3.4,1.46,3.4,4.2,0,.33-.02,.65-.06,.9h-5.07c.06,1.45,1.1,2.03,2.32,2.03,.84,0,1.49-.15,2.07-.35l.32,1.55Zm-1.66-4.8c.02-.88-.33-1.96-1.45-1.96s-1.54,1.13-1.6,1.96h3.05Z"/></g><g><path class="d" d="M32.5,20.54c0,2.73-.51,5.15-1.52,7.25s-2.45,3.72-4.32,4.85c-1.86,1.13-3.99,1.7-6.37,1.7s-4.5-.55-6.35-1.65c-1.85-1.09-3.29-2.66-4.32-4.7s-1.57-4.38-1.62-7.02v-1.58c0-2.74,.5-5.16,1.51-7.26,1.01-2.1,2.45-3.71,4.33-4.85,1.88-1.14,4.02-1.71,6.41-1.71s4.48,.56,6.35,1.69c1.86,1.13,3.31,2.73,4.34,4.82s1.56,4.47,1.57,7.16v1.28h0Zm-6.87-1.17c0-2.78-.46-4.89-1.39-6.34-.93-1.44-2.26-2.17-3.99-2.17-3.38,0-5.18,2.54-5.37,7.62l-.02,2.06c0,2.74,.45,4.85,1.36,6.32,.91,1.47,2.26,2.21,4.06,2.21s3.02-.72,3.94-2.17,1.39-3.53,1.41-6.25v-1.28Z"/><path class="d" d="M50.22,28.73h-9.25l-1.62,5.23h-7.21L42.41,5.97h6.35l10.35,28h-7.25l-1.63-5.23Zm-7.63-5.21h6.02l-3.02-9.71-3,9.71Z"/><path class="d" d="M74.54,26.52c0-.99-.35-1.75-1.05-2.31s-1.93-1.12-3.68-1.71c-1.75-.59-3.19-1.16-4.31-1.71-3.63-1.78-5.44-4.23-5.44-7.34,0-1.55,.45-2.92,1.36-4.11,.91-1.19,2.18-2.11,3.83-2.77,1.65-.66,3.51-.99,5.58-.99s3.82,.36,5.41,1.08c1.6,.72,2.84,1.74,3.72,3.07,.89,1.33,1.33,2.84,1.33,4.55h-6.73c0-1.14-.35-2.03-1.05-2.65-.7-.63-1.65-.94-2.84-.94s-2.16,.27-2.86,.8c-.7,.53-1.05,1.21-1.05,2.03,0,.72,.39,1.37,1.15,1.95s2.12,1.19,4.06,1.81c1.94,.62,3.53,1.29,4.77,2.01,3.03,1.74,4.54,4.15,4.54,7.21,0,2.45-.92,4.37-2.77,5.77-1.84,1.4-4.38,2.1-7.6,2.1-2.27,0-4.32-.41-6.16-1.22-1.84-.81-3.23-1.93-4.16-3.35-.93-1.42-1.39-3.05-1.39-4.89h6.77c0,1.5,.39,2.6,1.16,3.32,.78,.71,2.04,1.07,3.78,1.07,1.12,0,2-.24,2.64-.72,.66-.48,.98-1.16,.98-2.03Z"/><path class="d" d="M101.92,22.08h-10.61v6.69h12.54v5.19h-19.29V5.97h19.33v5.21h-12.58v5.9h10.61v5h0Z"/></g></g><rect class="e" width="267.63" height="40"/></g></g></g></svg>