<?xml version="1.0" encoding="utf-8"?>
<!-- Generator: Adobe Illustrator 26.3.1, SVG Export Plug-In . SVG Version: 6.00 Build 0)  -->
<svg version="1.1" id="レイヤー_1" xmlns="http://www.w3.org/2000/svg" xmlns:xlink="http://www.w3.org/1999/xlink" x="0px"
	 y="0px" viewBox="0 0 280.1 40" style="enable-background:new 0 0 280.1 40;" xml:space="preserve">
<style type="text/css">
	.st0{fill:none;}
	.st1{fill:#FFFFFF;}
</style>
<g id="a">
</g>
<rect class="st0" width="280.1" height="40"/>
<rect x="-79.6" y="64.9" class="st0" width="870" height="150"/>
<g>
	<path class="st1" d="M8.2,6.6C9.8,6.3,12,6,14.9,6c3.3,0,5.7,0.6,7.4,2.2c1.6,1.4,2.5,3.7,2.5,6.3c0,7.6-5.7,9.3-9.6,9.3
		c-0.6,0-1,0-1.4-0.1v9.7H8.2V6.6z M13.8,18.9c0.4,0,0.7,0.1,1.3,0.1c2.7,0,4.1-1.7,4.1-4.2c0-2.5-1.4-3.9-3.7-3.9
		c-0.8,0-1.4,0.1-1.7,0.2C13.8,11.1,13.8,18.9,13.8,18.9z"/>
	<path class="st1" d="M32,33.5h-5.7V6H32V33.5z"/>
	<path class="st1" d="M48.8,28.9c0,1.7,0.1,3.4,0.3,4.5H44l-0.3-1.8h-0.1c-1.1,1.5-2.8,2.2-4.7,2.2c-3.3,0-5.5-2.7-5.5-5.9
		c0-5.1,4.3-7.3,9.7-7.3c0-1.5-0.6-2.5-2.9-2.5c-1.7,0-3.3,0.5-4.5,1.3l-1-3.9c1.2-0.7,3.5-1.6,6.7-1.6c6,0,7.5,4,7.5,8.3L48.8,28.9
		L48.8,28.9z M43.3,24.4c-2.4,0-4.4,0.7-4.4,2.9c0,1.6,0.9,2.3,1.9,2.3c1.2,0,2.5-0.9,2.5-2.7V24.4z"/>
	<path class="st1" d="M65.5,14.3l-3.7,12.7c-1.7,5.5-3.2,8.5-5,10.4c-1.7,1.7-3.6,2.4-4.7,2.6l-1.3-4.7c2.2-0.5,4.3-2.8,4.3-3.8
		c0-0.2-0.1-0.4-0.2-0.8l-5.5-16.4h5.8l2,8.7c0.2,1,0.5,2.2,0.6,3.1h0.1c0.2-1,0.4-2.1,0.5-3.1l1.6-8.8L65.5,14.3L65.5,14.3z"/>
	<path class="st1" d="M73,16.3c1-1.4,2.5-2.4,4.7-2.4c4,0,6.5,4.1,6.5,9.5c0,6.9-3.5,10.4-7.3,10.4c-1.8,0-3.4-0.7-4.6-2.8h-0.1
		l-0.3,2.4h-4.8c0.1-1.5,0.1-3.7,0.1-5.9V6h5.7L73,16.3L73,16.3z M72.9,25.8c0,2.1,1.3,3.2,2.5,3.2c1.9,0,3-1.9,3-5.3
		c0-3-1-5.1-3-5.1c-1.3,0-2.5,1.2-2.5,3.3V25.8z"/>
	<path class="st1" d="M100.5,23.7c0,7.5-4.1,10.1-7.7,10.1c-4.5,0-7.6-3.7-7.6-9.9c0-6.4,3.3-10.1,7.8-10.1
		C97.7,13.9,100.5,18,100.5,23.7z M92.9,18.3c-1.9,0-2.5,2.9-2.5,5.6c0,3.2,0.8,5.6,2.5,5.6c1.7,0,2.4-2.6,2.4-5.6
		C95.3,21,94.6,18.3,92.9,18.3z"/>
	<path class="st1" d="M116.7,23.7c0,7.5-4.1,10.1-7.7,10.1c-4.5,0-7.6-3.7-7.6-9.9c0-6.4,3.3-10.1,7.8-10.1
		C113.9,13.9,116.7,18,116.7,23.7z M109.1,18.3c-1.9,0-2.5,2.9-2.5,5.6c0,3.2,0.8,5.6,2.5,5.6c1.7,0,2.4-2.6,2.4-5.6
		C111.6,21,110.9,18.3,109.1,18.3z"/>
	<path class="st1" d="M135.2,33.5h-6.7l-3.3-7.7l-1.1,1.8v5.9h-5.7V6h5.7v16.4h0.1c0.4-1,0.7-1.8,1.1-2.5l2.9-5.6h6.6l-5.6,7.9
		L135.2,33.5z"/>
	<path class="st1" d="M155.9,32.9c-0.9,0.4-2.8,0.9-5.3,0.9c-7.9,0-11.7-5.8-11.7-13.1c0-9.4,5.8-13.9,12.3-13.9c2.5,0,4.3,0.5,5,1
		l-1,4.9c-0.8-0.4-2-0.8-3.6-0.8c-3.6,0-6.6,2.6-6.6,8.5c0,5.5,2.6,8.4,6.6,8.4c1.3,0,2.8-0.3,3.6-0.6L155.9,32.9z"/>
	<path class="st1" d="M171.6,23.7c0,7.5-4.1,10.1-7.7,10.1c-4.5,0-7.6-3.7-7.6-9.9c0-6.4,3.3-10.1,7.8-10.1
		C168.8,13.9,171.6,18,171.6,23.7z M164,18.3c-1.9,0-2.5,2.9-2.5,5.6c0,3.2,0.8,5.6,2.5,5.6c1.7,0,2.4-2.6,2.4-5.6
		C166.4,21,165.7,18.3,164,18.3z"/>
	<path class="st1" d="M178.8,33.5h-5.7V6h5.7V33.5z"/>
	<path class="st1" d="M186.5,33.5h-5.7V6h5.7V33.5z"/>
	<path class="st1" d="M203,32.7c-1.7,0.7-3.9,1.1-6,1.1c-5.7,0-9-3.6-9-9.6c0-5.5,3-10.3,8.5-10.3c4.3,0,7.4,3.1,7.4,9.6
		c0,0.9,0,1.9-0.2,2.5h-10.3c0.1,2.3,2.1,3.3,4.4,3.3c1.6,0,3.1-0.3,4.4-0.8L203,32.7z M198.7,21.9c0-1.7-0.5-3.8-2.5-3.8
		c-1.9,0-2.7,2.2-2.8,3.8H198.7z"/>
	<path class="st1" d="M218.1,33.1c-0.8,0.4-2.4,0.7-4.2,0.7c-5.4,0-8.9-3.6-8.9-9.7c0-5.8,3.6-10.2,9.7-10.2c1.4,0,2.8,0.3,3.6,0.6
		l-0.8,4.5c-0.6-0.2-1.4-0.4-2.5-0.4c-2.6,0-4.2,2.1-4.2,5.2c0,3.3,1.8,5.2,4.2,5.2c1,0,1.8-0.2,2.6-0.5L218.1,33.1z"/>
	<path class="st1" d="M221.4,10.8l5.6-1.7v5.2h3.8v4.3H227v7.2c0,2.2,0.7,3.1,2,3.1c0.6,0,1,0,1.5-0.2l0,4.6c-0.7,0.2-2,0.4-3.5,0.4
		c-5.6,0-5.7-5-5.7-7.2v-8h-2.2v-4.3h2.2V10.8z"/>
	<path class="st1" d="M234.8,12.1c-1.7,0-2.9-1.3-2.9-3c0-1.8,1.2-3.1,2.9-3.1c1.7,0,2.9,1.3,2.9,3.1S236.5,12.1,234.8,12.1z
		 M237.7,33.5H232V14.3h5.7V33.5z"/>
	<path class="st1" d="M254.4,23.7c0,7.5-4.1,10.1-7.7,10.1c-4.5,0-7.6-3.7-7.6-9.9c0-6.4,3.3-10.1,7.8-10.1
		C251.6,13.9,254.4,18,254.4,23.7z M246.8,18.3c-1.9,0-2.5,2.9-2.5,5.6c0,3.2,0.8,5.6,2.5,5.6c1.7,0,2.4-2.6,2.4-5.6
		C249.3,21,248.6,18.3,246.8,18.3z"/>
	<path class="st1" d="M272.1,33.5h-5.7V22.3c0-2-0.6-3.5-2.2-3.5c-1.2,0-2.5,0.9-2.5,3.4v11.2H256V20.4c0-2.3-0.1-4.3-0.1-6.1h4.9
		l0.3,2.4h0.1c0.8-1.3,2.5-2.8,5.1-2.8c3.8,0,5.9,2.9,5.9,7.9L272.1,33.5L272.1,33.5z"/>
</g>
</svg>
